<svg width="29" height="29" viewBox="0 0 29 29" fill="none"
    xmlns="http://www.w3.org/2000/svg">
    <path fill-rule="evenodd" clip-rule="evenodd" d="M16.0042 9.91667H15.0036C15.0036 9.41041 14.5556 9 14.003 9C13.4504 9 13.0024 9.41041 13.0024 9.91667H10.0006C9.44798 9.91667 9 10.3271 9 10.8333C9 11.3396 9.44798 11.75 10.0006 11.75H11.0012V13.5833H10.0006C9.44798 13.5833 9 13.9937 9 14.5C9 15.0063 9.44798 15.4167 10.0006 15.4167H11.0012V17.25H10.0006C9.44798 17.25 9 17.6604 9 18.1667C9 18.6729 9.44798 19.0833 10.0006 19.0833H13.0024C13.0024 19.5896 13.4504 20 14.003 20C14.5556 20 15.0036 19.5896 15.0036 19.0833H16.0042C17.1869 19.0811 18.2579 18.443 18.7396 17.4535C19.2214 16.464 19.024 15.3076 18.2355 14.5C19.024 13.6924 19.2214 12.536 18.7396 11.5465C18.2579 10.557 17.1869 9.91886 16.0042 9.91667ZM16.0042 11.75C16.5568 11.75 17.0048 12.1604 17.0048 12.6667C17.0048 13.1729 16.5568 13.5833 16.0042 13.5833H13.0024V11.75H16.0042ZM13.0024 17.25H16.0042C16.5568 17.25 17.0048 16.8396 17.0048 16.3333C17.0048 15.8271 16.5568 15.4167 16.0042 15.4167H13.0024V17.25Z" fill="#3B1261"/>
    <path fill-rule="evenodd" clip-rule="evenodd" d="M4.53027 25.0244C-1.06161 19.7235 -1.53868 10.9713 3.44384 5.09279C6.2096 1.86047 10.2486 0 14.5 0C18.7514 0 22.7904 1.86047 25.5562 5.09279C30.5387 10.9713 30.0616 19.7235 24.4697 25.0244C18.8778 30.3252 10.1222 30.3252 4.53027 25.0244ZM7.69714 22.681C11.9219 26.2018 18.1308 25.9186 22.0182 22.0278V22.0133C25.9135 18.1165 26.1924 11.8873 22.661 7.65723C22.3138 7.24784 22.3369 6.64067 22.7142 6.25888L22.8157 6.15727C22.9675 6.00321 23.049 5.79316 23.0407 5.5769C23.0325 5.36064 22.9353 5.15741 22.7722 5.01537C17.8086 0.713653 10.3737 0.961871 5.70744 5.58509C1.04115 10.2083 0.716149 17.6483 4.96149 22.6616C5.1256 22.8508 5.36068 22.9633 5.61075 22.9725C5.86082 22.9817 6.1035 22.8866 6.28098 22.71C6.67423 22.3345 7.28886 22.3219 7.69714 22.681Z" fill="#3B1261"/>
</svg>
