<svg width="63" height="44" viewBox="0 0 63 44" fill="none" xmlns="http://www.w3.org/2000/svg">
<rect y="15.3047" width="57.1971" height="29.1506" rx="14.5753" transform="rotate(-15 0 15.3047)" fill="#D2FF54"/>
<path d="M20.8608 30.3432C20.0855 30.551 19.3446 30.5804 18.638 30.4315C17.938 30.2713 17.3183 29.9059 16.7789 29.3354C16.2395 28.7648 15.8334 27.9702 15.5604 26.9515C15.4275 26.4557 15.3767 25.9233 15.4079 25.3546C15.4391 24.7858 15.5517 24.2145 15.7458 23.6407C15.9465 23.0555 16.2384 22.5038 16.6213 21.9857C17.0109 21.4562 17.5 20.9918 18.0887 20.5924C18.675 20.1841 19.3648 19.8737 20.1582 19.6611C20.645 19.5307 21.1004 19.4811 21.5242 19.5125C21.9572 19.5414 22.3225 19.6609 22.6204 19.871C22.9158 20.072 23.1167 20.3709 23.223 20.7676C23.3268 21.1552 23.3237 21.5039 23.2134 21.8137C23.1122 22.121 22.9354 22.381 22.6832 22.5935C22.4375 22.7946 22.1479 22.9398 21.8143 23.0292C21.4177 23.1355 21.0034 23.1402 20.5716 23.0433C20.1399 22.9464 19.7548 22.7356 19.4166 22.4107C19.1421 22.6485 18.9146 22.9897 18.7342 23.4342C18.5604 23.8673 18.4575 24.349 18.4257 24.8793C18.3939 25.4096 18.448 25.9362 18.5881 26.4591C18.6872 26.8287 18.8252 27.1637 19.0024 27.4641C19.1861 27.7531 19.4037 27.9702 19.6551 28.1154C19.9066 28.2606 20.1856 28.2921 20.4922 28.2099C20.7446 28.1423 20.9626 27.9824 21.1463 27.7303C21.3276 27.4692 21.4513 27.1558 21.5176 26.7902C21.5839 26.4245 21.5627 26.0389 21.454 25.6332C22.0039 25.4858 22.471 25.3897 22.8551 25.3447C23.2458 25.2884 23.5621 25.3147 23.8039 25.4239C24.0457 25.533 24.2125 25.7589 24.3043 26.1014C24.3961 26.444 24.3912 26.8222 24.2895 27.2359C24.1877 27.6497 23.9898 28.0651 23.6957 28.4821C23.4082 28.8876 23.0239 29.2563 22.5427 29.5882C22.0706 29.9176 21.5099 30.1693 20.8608 30.3432ZM29.5413 28.0173C28.7479 28.2299 28.0229 28.2647 27.3662 28.1218C26.7161 27.9675 26.1665 27.6654 25.7175 27.2157C25.2685 26.7659 24.9497 26.1894 24.7613 25.4862C24.5004 24.5125 24.484 23.6038 24.712 22.7601C24.9467 21.9049 25.3838 21.1742 26.0234 20.568C26.6605 19.9528 27.4569 19.5171 28.4125 19.2611C28.5658 19.22 28.7215 19.188 28.8796 19.1649C29.0443 19.1305 29.2228 19.1116 29.4152 19.1084C29.4941 19.2225 29.5712 19.3661 29.6466 19.5392C29.7195 19.7032 29.7871 19.8832 29.8492 20.0791C29.9231 20.0303 30.0027 19.9848 30.088 19.9427C30.1824 19.898 30.2836 19.8613 30.3918 19.8323C30.7073 19.7477 31.0278 19.7536 31.3532 19.8501C31.6761 19.9374 31.9749 20.1328 32.2494 20.4361C32.5239 20.7393 32.7336 21.1615 32.8786 21.7024C33.0936 22.5047 33.1504 23.2577 33.049 23.9612C32.9542 24.6533 32.7395 25.2761 32.4046 25.8297C32.0698 26.3832 31.6531 26.8475 31.1546 27.2227C30.665 27.5954 30.1273 27.8603 29.5413 28.0173ZM29.5148 26.2416C29.7222 26.1861 29.9252 26.0785 30.124 25.919C30.3229 25.7594 30.4954 25.5199 30.6417 25.2005C30.788 24.8811 30.8693 24.4631 30.8855 23.9467C30.4326 23.8071 30.0735 23.5845 29.8079 23.2788C29.54 22.9641 29.3481 22.5904 29.2321 22.1576C29.1983 22.0314 29.1774 21.8631 29.1693 21.6527C29.1613 21.4423 29.1835 21.2189 29.2362 20.9826C29.2978 20.7438 29.4097 20.5302 29.5718 20.3419C28.9835 20.6348 28.5249 20.9606 28.1959 21.3193C27.8668 21.678 27.6343 22.0543 27.4983 22.4483C27.3689 22.8308 27.3062 23.21 27.3103 23.5857C27.3209 23.95 27.3685 24.29 27.4531 24.6055C27.5497 24.9661 27.6989 25.2885 27.9006 25.5726C28.1 25.8477 28.3377 26.0498 28.6138 26.1787C28.8899 26.3076 29.1902 26.3286 29.5148 26.2416ZM38.7251 25.5565C37.9318 25.7691 37.2067 25.8039 36.55 25.661C35.9 25.5067 35.3504 25.2046 34.9013 24.7548C34.4523 24.3051 34.1336 23.7286 33.9451 23.0254C33.6843 22.0517 33.6678 21.143 33.8959 20.2993C34.1305 19.4441 34.5676 18.7134 35.2072 18.1072C35.8444 17.492 36.6408 17.0563 37.5964 16.8003C37.7496 16.7592 37.9053 16.7272 38.0634 16.7041C38.2281 16.6697 38.4066 16.6508 38.599 16.6476C38.6779 16.7617 38.755 16.9053 38.8304 17.0784C38.9033 17.2424 38.9709 17.4224 39.0331 17.6183C39.1069 17.5695 39.1865 17.524 39.2719 17.4818C39.3662 17.4372 39.4675 17.4005 39.5757 17.3715C39.8912 17.2869 40.2116 17.2928 40.537 17.3893C40.86 17.4766 41.1587 17.672 41.4332 17.9753C41.7077 18.2785 41.9175 18.7006 42.0624 19.2416C42.2774 20.0439 42.3342 20.7969 42.2328 21.5004C42.1381 22.1925 41.9233 22.8153 41.5885 23.3689C41.2537 23.9224 40.837 24.3867 40.3384 24.7619C39.8489 25.1346 39.3111 25.3995 38.7251 25.5565ZM38.6986 23.7808C38.906 23.7253 39.1091 23.6177 39.3079 23.4582C39.5067 23.2986 39.6793 23.0591 39.8256 22.7397C39.9719 22.4203 40.0531 22.0023 40.0694 21.4859C39.6165 21.3463 39.2573 21.1237 38.9918 20.818C38.7239 20.5033 38.5319 20.1296 38.416 19.6968C38.3822 19.5706 38.3612 19.4023 38.3532 19.1919C38.3451 18.9815 38.3674 18.7581 38.42 18.5218C38.4816 18.283 38.5935 18.0694 38.7556 17.8811C38.1674 18.174 37.7087 18.4998 37.3797 18.8585C37.0507 19.2172 36.8181 19.5935 36.6821 19.9875C36.5527 20.37 36.4901 20.7492 36.4941 21.1249C36.5048 21.4892 36.5524 21.8292 36.6369 22.1447C36.7335 22.5053 36.8827 22.8277 37.0845 23.1118C37.2838 23.3869 37.5215 23.589 37.7976 23.7179C38.0738 23.8468 38.3741 23.8678 38.6986 23.7808ZM45.9481 23.6211C45.3982 23.7685 44.9601 23.7022 44.6339 23.4225C44.3077 23.1427 44.0504 22.6512 43.862 21.948C43.8089 21.7497 43.7529 21.4506 43.6941 21.0509C43.6443 20.6488 43.5936 20.1889 43.5419 19.6713C43.4901 19.1537 43.4426 18.6157 43.3992 18.0572C43.3535 17.4897 43.308 16.9415 43.2629 16.4125C43.2178 15.8834 43.1781 15.4109 43.144 14.9949L42.0968 14.116C42.4997 13.7085 42.8922 13.3521 43.2742 13.0469C43.6562 12.7416 44.0636 12.531 44.4963 12.415C44.875 12.3136 45.1569 12.3201 45.3422 12.4347C45.5342 12.5379 45.676 12.7608 45.7678 13.1034C45.8523 13.4189 45.9181 13.8265 45.965 14.326C46.0094 14.8166 46.048 15.357 46.0805 15.9474C46.1107 16.5287 46.1412 17.1293 46.172 17.7491C46.2118 18.3665 46.2636 18.9565 46.3274 19.5192C46.3912 20.0818 46.4823 20.584 46.6006 21.0258C46.6949 21.3774 46.811 21.6845 46.9489 21.947C47.0935 22.1982 47.2597 22.3855 47.4474 22.5092C46.9347 23.12 46.435 23.4907 45.9481 23.6211Z" fill="#1F2232"/>
</svg>
