<svg width="18" height="10" viewBox="0 0 18 10" fill="none" xmlns="http://www.w3.org/2000/svg">
<path d="M7.616 9.07687H4.077C2.949 9.07687 1.98767 8.67954 1.193 7.88488C0.398334 7.09021 0.000667503 6.12854 8.3682e-07 4.99988C-0.00066583 3.87121 0.397001 2.90954 1.193 2.11487C1.989 1.32021 2.95033 0.922542 4.077 0.921875H7.616V1.92188H4.077C3.23033 1.92188 2.506 2.22321 1.904 2.82588C1.30133 3.42921 1 4.15388 1 4.99988C1 5.84588 1.30133 6.57021 1.904 7.17288C2.50667 7.77554 3.231 8.07687 4.077 8.07687H7.616V9.07687ZM5.5 5.49988V4.49988H12.5V5.49988H5.5ZM10.385 9.07687V8.07687H13.923C14.7697 8.07687 15.494 7.77554 16.096 7.17288C16.6987 6.57021 17 5.84588 17 4.99988C17 4.15388 16.6987 3.42954 16.096 2.82687C15.4933 2.22421 14.769 1.92288 13.923 1.92288H10.385V0.922875H13.923C15.051 0.922875 16.0127 1.32021 16.808 2.11487C17.6033 2.90954 18.0007 3.87121 18 4.99988C17.9993 6.12854 17.6017 7.09021 16.807 7.88488C16.0123 8.67954 15.051 9.07721 13.923 9.07787L10.385 9.07687Z" fill="#050000"/>
</svg>
