<svg width="62" height="68" viewBox="0 0 62 68" fill="none" xmlns="http://www.w3.org/2000/svg">
<path d="M15.6699 57.8376C7.02971 52.8492 4.06902 41.7997 9.05745 33.1595L17.919 17.8109C22.9074 9.1707 33.9569 6.20999 42.5971 11.1984C51.2373 16.1869 54.198 27.2363 49.2095 35.8766L40.3481 51.2251C35.3596 59.8653 24.3101 62.826 15.6699 57.8376Z" fill="#ECB22E" stroke="#1F2232" stroke-width="0.0353259"/>
<path d="M18.4814 56.6281C9.83274 51.6348 6.86916 40.5745 11.8625 31.9258L20.724 16.5772C25.7173 7.92857 36.7776 4.96497 45.4262 9.95828C54.0749 14.9516 57.0385 26.0119 52.0452 34.6605L43.1837 50.0091C38.1903 58.6578 27.1301 61.6214 18.4814 56.6281Z" fill="#ECB22E" stroke="#1F2232" stroke-width="0.7" stroke-miterlimit="10" stroke-linecap="round"/>
</svg>
