<svg width="17" height="20" viewBox="0 0 17 20" fill="none" xmlns="http://www.w3.org/2000/svg">
<path d="M7.92946 16.562C4.21575 16.562 1.19922 13.2113 1.19922 9.08619C1.19922 4.96106 4.21575 1.61035 7.92946 1.61035C11.6432 1.61035 14.6597 4.96106 14.6597 9.08619C14.6597 13.2113 11.6432 16.562 7.92946 16.562ZM7.92946 2.76048C4.78868 2.76048 2.23464 5.59747 2.23464 9.08619C2.23464 12.5749 4.78868 15.4119 7.92946 15.4119C11.0702 15.4119 13.6243 12.5749 13.6243 9.08619C13.6243 5.59747 11.0702 2.76048 7.92946 2.76048Z" fill="#292D32"/>
<path d="M14.251 18.1268C14.1958 18.1268 14.1406 18.1192 14.0923 18.1115C13.7678 18.0655 13.1811 17.8201 12.8498 16.7237C12.6772 16.1486 12.7393 15.5736 13.0223 15.1365C13.3054 14.6995 13.7817 14.4541 14.327 14.4541C15.0311 14.4541 15.5833 14.7531 15.8318 15.2822C16.0803 15.8113 16.0113 16.486 15.6178 17.1377C15.1277 17.9582 14.5962 18.1268 14.251 18.1268ZM13.8369 16.3633C13.9542 16.762 14.1199 16.9614 14.2303 16.9767C14.3408 16.9921 14.5479 16.8464 14.7618 16.5013C14.962 16.1716 14.9758 15.9339 14.9275 15.8266C14.8792 15.7192 14.6859 15.6042 14.327 15.6042C14.113 15.6042 13.9542 15.6809 13.8645 15.8113C13.7817 15.9416 13.7678 16.141 13.8369 16.3633Z" fill="#292D32"/>
</svg>
