<svg width="71" height="40" viewBox="0 0 71 40" fill="none" xmlns="http://www.w3.org/2000/svg">
<rect x="1" y="0.5" width="69" height="39" rx="19.5" stroke="black"/>
<path d="M30.4454 17.902C30.3974 17.986 30.3454 18.048 30.2894 18.088C30.2374 18.124 30.1714 18.142 30.0914 18.142C30.0074 18.142 29.9154 18.112 29.8154 18.052C29.7194 17.988 29.6034 17.918 29.4674 17.842C29.3314 17.766 29.1714 17.698 28.9874 17.638C28.8074 17.574 28.5934 17.542 28.3454 17.542C28.1214 17.542 27.9254 17.57 27.7574 17.626C27.5894 17.678 27.4474 17.752 27.3314 17.848C27.2194 17.944 27.1354 18.06 27.0794 18.196C27.0234 18.328 26.9954 18.474 26.9954 18.634C26.9954 18.838 27.0514 19.008 27.1634 19.144C27.2794 19.28 27.4314 19.396 27.6194 19.492C27.8074 19.588 28.0214 19.674 28.2614 19.75C28.5014 19.826 28.7474 19.908 28.9994 19.996C29.2514 20.08 29.4974 20.18 29.7374 20.296C29.9774 20.408 30.1914 20.552 30.3794 20.728C30.5674 20.9 30.7174 21.112 30.8294 21.364C30.9454 21.616 31.0034 21.922 31.0034 22.282C31.0034 22.674 30.9354 23.042 30.7994 23.386C30.6674 23.726 30.4714 24.024 30.2114 24.28C29.9554 24.532 29.6414 24.732 29.2694 24.88C28.8974 25.024 28.4714 25.096 27.9914 25.096C27.7154 25.096 27.4434 25.068 27.1754 25.012C26.9074 24.96 26.6494 24.884 26.4014 24.784C26.1574 24.684 25.9274 24.564 25.7114 24.424C25.4954 24.284 25.3034 24.128 25.1354 23.956L25.6094 23.182C25.6494 23.126 25.7014 23.08 25.7654 23.044C25.8294 23.004 25.8974 22.984 25.9694 22.984C26.0694 22.984 26.1774 23.026 26.2934 23.11C26.4094 23.19 26.5474 23.28 26.7074 23.38C26.8674 23.48 27.0534 23.572 27.2654 23.656C27.4814 23.736 27.7394 23.776 28.0394 23.776C28.4994 23.776 28.8554 23.668 29.1074 23.452C29.3594 23.232 29.4854 22.918 29.4854 22.51C29.4854 22.282 29.4274 22.096 29.3114 21.952C29.1994 21.808 29.0494 21.688 28.8614 21.592C28.6734 21.492 28.4594 21.408 28.2194 21.34C27.9794 21.272 27.7354 21.198 27.4874 21.118C27.2394 21.038 26.9954 20.942 26.7554 20.83C26.5154 20.718 26.3014 20.572 26.1134 20.392C25.9254 20.212 25.7734 19.988 25.6574 19.72C25.5454 19.448 25.4894 19.114 25.4894 18.718C25.4894 18.402 25.5514 18.094 25.6754 17.794C25.8034 17.494 25.9874 17.228 26.2274 16.996C26.4674 16.764 26.7634 16.578 27.1154 16.438C27.4674 16.298 27.8714 16.228 28.3274 16.228C28.8394 16.228 29.3114 16.308 29.7434 16.468C30.1754 16.628 30.5434 16.852 30.8474 17.14L30.4454 17.902ZM33.0773 16.084V21.19H33.3533C33.4533 21.19 33.5313 21.178 33.5873 21.154C33.6473 21.126 33.7073 21.072 33.7673 20.992L35.2973 19.102C35.3613 19.018 35.4313 18.954 35.5073 18.91C35.5873 18.866 35.6893 18.844 35.8133 18.844H37.1693L35.2553 21.13C35.1193 21.31 34.9713 21.448 34.8113 21.544C34.8953 21.604 34.9693 21.674 35.0333 21.754C35.1013 21.834 35.1653 21.92 35.2253 22.012L37.2773 25H35.9393C35.8233 25 35.7233 24.982 35.6393 24.946C35.5553 24.906 35.4853 24.836 35.4293 24.736L33.8573 22.402C33.8013 22.31 33.7433 22.25 33.6833 22.222C33.6233 22.194 33.5333 22.18 33.4133 22.18H33.0773V25H31.5953V16.084H33.0773ZM39.0414 18.844V25H37.5534V18.844H39.0414ZM39.2454 17.05C39.2454 17.178 39.2194 17.298 39.1674 17.41C39.1154 17.522 39.0454 17.62 38.9574 17.704C38.8734 17.788 38.7734 17.856 38.6574 17.908C38.5414 17.956 38.4174 17.98 38.2854 17.98C38.1574 17.98 38.0354 17.956 37.9194 17.908C37.8074 17.856 37.7094 17.788 37.6254 17.704C37.5414 17.62 37.4734 17.522 37.4214 17.41C37.3734 17.298 37.3494 17.178 37.3494 17.05C37.3494 16.918 37.3734 16.794 37.4214 16.678C37.4734 16.562 37.5414 16.462 37.6254 16.378C37.7094 16.294 37.8074 16.228 37.9194 16.18C38.0354 16.128 38.1574 16.102 38.2854 16.102C38.4174 16.102 38.5414 16.128 38.6574 16.18C38.7734 16.228 38.8734 16.294 38.9574 16.378C39.0454 16.462 39.1154 16.562 39.1674 16.678C39.2194 16.794 39.2454 16.918 39.2454 17.05ZM41.5343 23.404C41.7023 23.608 41.8843 23.752 42.0803 23.836C42.2803 23.92 42.4963 23.962 42.7283 23.962C42.9523 23.962 43.1543 23.92 43.3343 23.836C43.5143 23.752 43.6663 23.624 43.7903 23.452C43.9183 23.28 44.0163 23.064 44.0843 22.804C44.1523 22.54 44.1863 22.23 44.1863 21.874C44.1863 21.514 44.1563 21.21 44.0963 20.962C44.0403 20.71 43.9583 20.506 43.8503 20.35C43.7423 20.194 43.6103 20.08 43.4543 20.008C43.3023 19.936 43.1283 19.9 42.9323 19.9C42.6243 19.9 42.3623 19.966 42.1463 20.098C41.9303 20.226 41.7263 20.408 41.5343 20.644V23.404ZM41.4563 19.684C41.7083 19.4 41.9943 19.17 42.3143 18.994C42.6343 18.818 43.0103 18.73 43.4423 18.73C43.7783 18.73 44.0843 18.8 44.3603 18.94C44.6403 19.08 44.8803 19.284 45.0803 19.552C45.2843 19.816 45.4403 20.144 45.5483 20.536C45.6603 20.924 45.7163 21.37 45.7163 21.874C45.7163 22.334 45.6543 22.76 45.5303 23.152C45.4063 23.544 45.2283 23.884 44.9963 24.172C44.7683 24.46 44.4903 24.686 44.1623 24.85C43.8383 25.01 43.4743 25.09 43.0703 25.09C42.7263 25.09 42.4323 25.038 42.1883 24.934C41.9443 24.826 41.7263 24.678 41.5343 24.49V27.01H40.0523V18.844H40.9583C41.1503 18.844 41.2763 18.934 41.3363 19.114L41.4563 19.684Z" fill="#1F2232"/>
</svg>
