<svg width="210" height="67" viewBox="0 0 210 67" fill="none" xmlns="http://www.w3.org/2000/svg">
<g clip-path="url(#clip0_3352_127778)">
<path d="M206.205 59.9801C174.589 61.8998 108.401 58.7854 91.3102 56.495C74.2197 54.1963 2.87422 44.4742 1.06527 29.9158C-0.757178 15.3491 47.8549 -0.609919 104.337 0.691852C160.82 2.00186 207.15 16.964 208.919 31.2999C210.674 45.6359 175.345 59.6093 128.934 65.0389C82.5354 70.4767 -0.419687 59.4363 21.9627 30.1218" stroke="black"/>
<path d="M70.1147 36.0811C69.8657 36.4424 69.5776 36.7695 69.2505 37.0625C68.9233 37.3506 68.5669 37.5972 68.1812 37.8022C67.8003 38.0073 67.3926 38.166 66.958 38.2783C66.5283 38.3906 66.0815 38.4468 65.6177 38.4468C65.105 38.4468 64.6118 38.3784 64.1382 38.2417C63.6694 38.1099 63.23 37.9219 62.8198 37.6777C62.4097 37.4287 62.0361 37.1333 61.6992 36.7915C61.3623 36.4448 61.0742 36.0615 60.835 35.6416C60.5957 35.2217 60.4102 34.77 60.2783 34.2866C60.1465 33.8032 60.0806 33.3003 60.0806 32.7778C60.0806 32.2554 60.1465 31.7524 60.2783 31.269C60.4102 30.7856 60.5957 30.334 60.835 29.9141C61.0742 29.4941 61.3623 29.1133 61.6992 28.7715C62.0361 28.4248 62.4097 28.1294 62.8198 27.8853C63.23 27.6362 63.6719 27.4458 64.1455 27.314C64.6191 27.1772 65.1099 27.1089 65.6177 27.1089C66.0522 27.1089 66.4722 27.1577 66.8774 27.2554C67.2827 27.353 67.6685 27.4922 68.0347 27.6729C68.4009 27.8535 68.7427 28.0732 69.0601 28.332C69.3774 28.5908 69.6631 28.8789 69.917 29.1963L68.7964 30.1118C68.4155 29.6382 67.9517 29.2622 67.4048 28.9839C66.8628 28.7056 66.2671 28.5664 65.6177 28.5664C65.0513 28.5664 64.5215 28.6787 64.0283 28.9033C63.5352 29.123 63.103 29.4233 62.7319 29.8042C62.3608 30.1851 62.0679 30.6318 61.853 31.1445C61.6431 31.6523 61.5381 32.1968 61.5381 32.7778C61.5381 33.3589 61.6431 33.9058 61.853 34.4185C62.0679 34.9312 62.3608 35.3779 62.7319 35.7588C63.103 36.1396 63.5352 36.4424 64.0283 36.667C64.5215 36.8867 65.0513 36.9966 65.6177 36.9966C66.2085 36.9966 66.7578 36.8794 67.2656 36.645C67.7783 36.4058 68.2227 36.0786 68.5986 35.6636L68.5693 34.1035L64.0869 34.2793V32.7485L69.9976 32.5581L70.1147 36.0811ZM75.3955 37.3262C75.6543 37.3262 75.9106 37.2871 76.1646 37.209C76.4185 37.126 76.6528 37.0088 76.8677 36.8574C77.0825 36.7012 77.2681 36.5083 77.4243 36.2788C77.5854 36.0493 77.7026 35.7832 77.7759 35.4805L79.1895 35.7661C79.0527 36.2104 78.8599 36.6133 78.6108 36.9746C78.3618 37.3359 78.0713 37.646 77.7393 37.9048C77.4072 38.1636 77.041 38.3638 76.6406 38.5054C76.2451 38.647 75.8301 38.7178 75.3955 38.7178C74.751 38.7178 74.1797 38.6201 73.6816 38.4248C73.1836 38.2295 72.7637 37.9536 72.4219 37.5972C72.0801 37.2407 71.8188 36.811 71.6382 36.3081C71.4624 35.8052 71.3745 35.2437 71.3745 34.6235C71.3745 34.0132 71.4771 33.4443 71.6821 32.917C71.8921 32.3848 72.1777 31.9233 72.5391 31.5327C72.9004 31.1421 73.3252 30.8345 73.8135 30.6099C74.3018 30.3853 74.8291 30.2729 75.3955 30.2729C75.9033 30.2729 76.3818 30.373 76.8311 30.5732C77.2803 30.7686 77.6782 31.042 78.0249 31.3936C78.3716 31.7402 78.6572 32.1504 78.8818 32.624C79.1064 33.0977 79.248 33.6104 79.3066 34.1621L72.9639 35.1069C72.998 35.4536 73.0835 35.7661 73.2202 36.0444C73.3569 36.3179 73.5303 36.5498 73.7402 36.7402C73.9551 36.9307 74.2017 37.0771 74.48 37.1797C74.7632 37.2773 75.0684 37.3262 75.3955 37.3262ZM77.417 33.2173L77.373 33.0781C77.1875 32.5947 76.9312 32.2163 76.604 31.9429C76.2817 31.6694 75.8789 31.5327 75.3955 31.5327C75.1904 31.5327 74.9658 31.5693 74.7217 31.6426C74.4775 31.7109 74.2407 31.8306 74.0112 32.0015C73.7817 32.1724 73.5742 32.4019 73.3887 32.6899C73.208 32.9731 73.0811 33.3271 73.0078 33.752L77.417 33.2173ZM83.9575 27.4531L83.9062 30.7271L86.748 30.6318L86.6382 32.0015L83.8916 32.0747L83.833 38.4614L82.2876 38.498L82.4121 32.1187L79.8779 32.1772L79.9072 30.8296L82.4414 30.7563L82.5 27.5483L83.9575 27.4531ZM99.7266 36.2715C99.6777 36.6133 99.5801 36.9185 99.4336 37.187C99.292 37.4507 99.1138 37.6802 98.8989 37.8755C98.6841 38.0708 98.4424 38.2344 98.1738 38.3662C97.9102 38.5029 97.6318 38.6128 97.3389 38.6958C97.0508 38.7788 96.7578 38.8374 96.46 38.8716C96.1621 38.9106 95.8765 38.9302 95.603 38.9302C95.2271 38.9302 94.856 38.8887 94.4897 38.8057C94.1235 38.7275 93.7622 38.6152 93.4058 38.4688C93.0542 38.3271 92.7051 38.1562 92.3584 37.9561C92.0166 37.7559 91.6772 37.5361 91.3403 37.2969L92.4097 36.0371C92.7905 36.374 93.1665 36.6401 93.5376 36.8354C93.9136 37.0259 94.2505 37.1699 94.5483 37.2676C94.895 37.3848 95.2271 37.4629 95.5444 37.502C95.896 37.5215 96.2231 37.4946 96.5259 37.4214C96.8286 37.3481 97.0923 37.2432 97.3169 37.1064C97.5464 36.9648 97.7295 36.7988 97.8662 36.6084C98.0029 36.4131 98.0835 36.208 98.1079 35.9932C98.1226 35.8125 98.0908 35.6489 98.0127 35.5024C97.9346 35.3511 97.8198 35.2144 97.6685 35.0923C97.5171 34.9653 97.3389 34.8555 97.1338 34.7627C96.9287 34.665 96.709 34.5796 96.4746 34.5063C96.2451 34.4282 96.0059 34.3623 95.7568 34.3086C95.5127 34.25 95.2759 34.2012 95.0464 34.1621C94.7681 34.1133 94.4751 34.0498 94.1675 33.9717C93.8599 33.8887 93.5571 33.7812 93.2593 33.6494C92.9614 33.5176 92.6807 33.354 92.417 33.1587C92.1533 32.9634 91.9238 32.729 91.7285 32.4556C91.5381 32.1772 91.3916 31.855 91.2891 31.4888C91.1914 31.1226 91.1597 30.7026 91.1938 30.229C91.2231 29.8384 91.3037 29.4868 91.4355 29.1743C91.5723 28.8569 91.7456 28.5737 91.9556 28.3247C92.1704 28.0757 92.4146 27.8633 92.688 27.6875C92.9663 27.5068 93.2617 27.3579 93.5742 27.2407C93.8867 27.1235 94.209 27.0405 94.541 26.9917C94.8779 26.938 95.2124 26.9136 95.5444 26.9185C96.0034 26.9429 96.4648 27.0137 96.9287 27.1309C97.124 27.1797 97.3291 27.2432 97.5439 27.3213C97.7637 27.3945 97.9834 27.4849 98.2031 27.5923C98.4229 27.6948 98.6401 27.8193 98.855 27.9658C99.0698 28.1074 99.2749 28.271 99.4702 28.4565L98.6499 29.7529C98.4937 29.5771 98.3276 29.4233 98.1519 29.2915C97.9761 29.1597 97.7979 29.0449 97.6172 28.9473C97.4414 28.8496 97.2656 28.7666 97.0898 28.6982C96.9141 28.6299 96.748 28.5737 96.5918 28.5298C96.2158 28.4272 95.8472 28.3687 95.4858 28.354C95.0415 28.354 94.646 28.4224 94.2993 28.5591C93.9526 28.6909 93.6597 28.8643 93.4204 29.0791C93.186 29.2891 93.0054 29.5259 92.8784 29.7896C92.7563 30.0483 92.6953 30.3047 92.6953 30.5586C92.6953 30.8076 92.7686 31.0493 92.915 31.2837C93.0664 31.5181 93.2739 31.7305 93.5376 31.9209C93.8013 32.1113 94.1113 32.2749 94.4678 32.4116C94.8242 32.5435 95.2075 32.6362 95.6177 32.6899C95.9741 32.729 96.3281 32.7925 96.6797 32.8804C97.0361 32.9683 97.3755 33.0806 97.6978 33.2173C98.02 33.354 98.3154 33.52 98.584 33.7153C98.8574 33.9058 99.0869 34.1279 99.2725 34.3818C99.458 34.6309 99.5923 34.9141 99.6753 35.2314C99.7632 35.5439 99.7803 35.8906 99.7266 36.2715ZM104.26 27.4531L104.209 30.7271L107.051 30.6318L106.941 32.0015L104.194 32.0747L104.136 38.4614L102.59 38.498L102.715 32.1187L100.181 32.1772L100.21 30.8296L102.744 30.7563L102.803 27.5483L104.26 27.4531ZM113.899 38.4614L114.001 37.4287C113.406 37.8096 112.82 38.0854 112.244 38.2563C111.672 38.4272 111.138 38.5127 110.64 38.5127C110.288 38.5127 109.946 38.4663 109.614 38.3735C109.287 38.2856 108.997 38.1489 108.743 37.9634C108.494 37.7729 108.291 37.5337 108.135 37.2456C107.983 36.9526 107.908 36.6084 107.908 36.2129C107.908 35.8174 107.966 35.4634 108.083 35.1509C108.201 34.8384 108.362 34.5625 108.567 34.3232C108.772 34.084 109.014 33.8789 109.292 33.708C109.57 33.5371 109.868 33.3979 110.186 33.2905C110.508 33.1831 110.845 33.105 111.196 33.0562C111.548 33.0024 111.897 32.9756 112.244 32.9756C112.566 32.9756 112.866 32.9878 113.145 33.0122C113.423 33.0366 113.669 33.0684 113.884 33.1074C113.821 32.8633 113.743 32.624 113.65 32.3896C113.557 32.1504 113.438 31.938 113.291 31.7524C113.149 31.562 112.974 31.4082 112.764 31.291C112.554 31.1738 112.302 31.1152 112.009 31.1152C111.819 31.1152 111.602 31.1445 111.357 31.2031C111.113 31.2568 110.845 31.3569 110.552 31.5034C110.259 31.6499 109.939 31.8525 109.592 32.1113C109.246 32.3652 108.875 32.6924 108.479 33.0928L107.593 32.0161C108.062 31.5767 108.511 31.2178 108.94 30.9395C109.37 30.6611 109.773 30.4438 110.149 30.2876C110.53 30.1265 110.881 30.0166 111.204 29.958C111.531 29.8994 111.824 29.8701 112.083 29.8701C112.532 29.8701 112.932 29.9482 113.284 30.1045C113.635 30.2559 113.943 30.4658 114.207 30.7344C114.475 30.998 114.7 31.3105 114.88 31.6719C115.066 32.0283 115.217 32.4141 115.334 32.8291C115.452 33.2393 115.535 33.6665 115.583 34.1108C115.637 34.5552 115.664 34.9971 115.664 35.4365C115.664 35.9053 115.637 36.4082 115.583 36.9453C115.53 37.4824 115.447 38.0684 115.334 38.7031L113.899 38.4614ZM114.104 35.7954C114.114 35.5513 114.121 35.3096 114.126 35.0703C114.131 34.8311 114.119 34.582 114.089 34.3232C113.85 34.25 113.599 34.1914 113.335 34.1475C113.071 34.1035 112.808 34.0815 112.544 34.0815C112.104 34.0815 111.677 34.1328 111.262 34.2354C110.852 34.3379 110.498 34.4868 110.2 34.6821C109.902 34.8774 109.678 35.1167 109.526 35.3999C109.38 35.6831 109.351 36.0054 109.438 36.3667C109.507 36.6597 109.639 36.8647 109.834 36.9819C110.034 37.0991 110.273 37.1577 110.552 37.1577C110.835 37.1577 111.14 37.1113 111.467 37.0186C111.799 36.9209 112.126 36.8037 112.449 36.667C112.776 36.5254 113.083 36.3765 113.372 36.2202C113.66 36.064 113.904 35.9224 114.104 35.7954ZM123.076 33.8765C123.071 33.6372 123.049 33.4297 123.01 33.2539C122.976 33.0781 122.93 32.9268 122.871 32.7998C122.817 32.6729 122.754 32.5679 122.681 32.4849C122.612 32.4019 122.542 32.3335 122.468 32.2798C122.297 32.1577 122.104 32.0991 121.89 32.104C121.753 32.1235 121.606 32.1821 121.45 32.2798C121.299 32.3726 121.143 32.4946 120.981 32.646C120.82 32.7925 120.657 32.9609 120.491 33.1514C120.33 33.3369 120.173 33.5298 120.022 33.73C119.871 33.9253 119.727 34.1206 119.59 34.3159C119.453 34.5112 119.331 34.6895 119.224 34.8506C119.229 35.2168 119.236 35.5781 119.246 35.9346C119.255 36.2861 119.263 36.6157 119.268 36.9233C119.277 37.2261 119.287 37.502 119.297 37.751C119.312 37.9951 119.326 38.1929 119.341 38.3442L117.766 38.542C117.737 37.7021 117.71 36.9429 117.686 36.2642C117.661 35.5806 117.639 34.9702 117.62 34.4331C117.6 33.896 117.583 33.4224 117.568 33.0122C117.559 32.6021 117.549 32.248 117.539 31.9502C117.52 31.252 117.505 30.7344 117.495 30.3975L119.165 30.3682C119.17 30.666 119.172 30.9712 119.172 31.2837C119.177 31.5913 119.182 31.8745 119.187 32.1333C119.192 32.436 119.194 32.7314 119.194 33.0195C119.336 32.7949 119.507 32.5483 119.707 32.2798C119.912 32.0112 120.142 31.7573 120.396 31.5181C120.654 31.2788 120.935 31.0713 121.238 30.8955C121.545 30.7148 121.873 30.6025 122.219 30.5586C122.61 30.5391 122.966 30.6221 123.289 30.8076C123.425 30.8857 123.56 30.9907 123.691 31.1226C123.828 31.2495 123.953 31.4155 124.065 31.6206C124.182 31.8208 124.28 32.0625 124.358 32.3457C124.436 32.624 124.49 32.9536 124.519 33.3345L123.076 33.8765ZM128.914 27.4531L128.862 30.7271L131.704 30.6318L131.594 32.0015L128.848 32.0747L128.789 38.4614L127.244 38.498L127.368 32.1187L124.834 32.1772L124.863 30.8296L127.397 30.7563L127.456 27.5483L128.914 27.4531ZM136.289 37.3262C136.548 37.3262 136.804 37.2871 137.058 37.209C137.312 37.126 137.546 37.0088 137.761 36.8574C137.976 36.7012 138.162 36.5083 138.318 36.2788C138.479 36.0493 138.596 35.7832 138.669 35.4805L140.083 35.7661C139.946 36.2104 139.753 36.6133 139.504 36.9746C139.255 37.3359 138.965 37.646 138.633 37.9048C138.301 38.1636 137.935 38.3638 137.534 38.5054C137.139 38.647 136.724 38.7178 136.289 38.7178C135.645 38.7178 135.073 38.6201 134.575 38.4248C134.077 38.2295 133.657 37.9536 133.315 37.5972C132.974 37.2407 132.712 36.811 132.532 36.3081C132.356 35.8052 132.268 35.2437 132.268 34.6235C132.268 34.0132 132.371 33.4443 132.576 32.917C132.786 32.3848 133.071 31.9233 133.433 31.5327C133.794 31.1421 134.219 30.8345 134.707 30.6099C135.195 30.3853 135.723 30.2729 136.289 30.2729C136.797 30.2729 137.275 30.373 137.725 30.5732C138.174 30.7686 138.572 31.042 138.918 31.3936C139.265 31.7402 139.551 32.1504 139.775 32.624C140 33.0977 140.142 33.6104 140.2 34.1621L133.857 35.1069C133.892 35.4536 133.977 35.7661 134.114 36.0444C134.25 36.3179 134.424 36.5498 134.634 36.7402C134.849 36.9307 135.095 37.0771 135.374 37.1797C135.657 37.2773 135.962 37.3262 136.289 37.3262ZM138.311 33.2173L138.267 33.0781C138.081 32.5947 137.825 32.2163 137.498 31.9429C137.175 31.6694 136.772 31.5327 136.289 31.5327C136.084 31.5327 135.859 31.5693 135.615 31.6426C135.371 31.7109 135.134 31.8306 134.905 32.0015C134.675 32.1724 134.468 32.4019 134.282 32.6899C134.102 32.9731 133.975 33.3271 133.901 33.752L138.311 33.2173ZM149.407 27.4971L149.377 38.3003H147.876L147.891 37.3701C147.744 37.5068 147.593 37.6265 147.437 37.729C147.285 37.8315 147.131 37.9219 146.975 38C146.824 38.0732 146.675 38.1343 146.528 38.1831C146.382 38.2368 146.243 38.2808 146.111 38.3149C145.803 38.3931 145.498 38.437 145.195 38.4468C144.629 38.4468 144.102 38.3467 143.613 38.1465C143.125 37.9512 142.7 37.6704 142.339 37.3042C141.978 36.9331 141.692 36.4839 141.482 35.9565C141.277 35.4292 141.174 34.8359 141.174 34.1768C141.174 33.5127 141.289 32.9219 141.519 32.4043C141.748 31.8818 142.048 31.4424 142.419 31.0859C142.795 30.7295 143.218 30.4585 143.687 30.2729C144.16 30.0825 144.636 29.9873 145.115 29.9873C145.442 29.9922 145.774 30.0361 146.111 30.1191C146.399 30.1875 146.709 30.3022 147.041 30.4634C147.373 30.6196 147.683 30.8467 147.971 31.1445L148.03 27.3945L149.407 27.4971ZM145.195 37.0991C145.498 37.0991 145.793 37.0503 146.082 36.9526C146.37 36.855 146.633 36.7183 146.873 36.5425C147.117 36.3618 147.329 36.147 147.51 35.8979C147.69 35.6489 147.827 35.3755 147.92 35.0776L147.935 33.5176C147.847 33.2051 147.71 32.9194 147.524 32.6606C147.339 32.397 147.122 32.1724 146.873 31.9868C146.624 31.8013 146.35 31.6572 146.052 31.5547C145.759 31.4521 145.459 31.4009 145.151 31.4009C144.79 31.4009 144.458 31.4766 144.155 31.6279C143.853 31.7744 143.591 31.9771 143.372 32.2358C143.152 32.4946 142.981 32.7998 142.859 33.1514C142.737 33.5029 142.676 33.8838 142.676 34.2939C142.676 34.7041 142.737 35.0801 142.859 35.4219C142.986 35.7637 143.159 36.0591 143.379 36.3081C143.604 36.5571 143.87 36.7524 144.177 36.894C144.49 37.0308 144.829 37.0991 145.195 37.0991Z" fill="black"/>
</g>
<defs>
<clipPath id="clip0_3352_127778">
<rect width="210" height="67" fill="white"/>
</clipPath>
</defs>
</svg>
