<svg width="101" height="53" viewBox="0 0 101 53" fill="none" xmlns="http://www.w3.org/2000/svg">
<g clip-path="url(#clip0_3331_13496)">
<path d="M99.1787 47.447C83.9729 48.9656 52.1393 46.502 43.9196 44.6901C35.6999 42.8717 1.38608 35.1811 0.516064 23.6648C-0.360447 12.1419 23.0197 -0.482415 50.185 0.547344C77.3503 1.58362 99.6332 13.4193 100.484 24.7597C101.328 36.1001 84.3365 47.1537 62.0147 51.4487C39.6993 55.7503 -0.198129 47.0169 10.5667 23.8277" stroke="white"/>
<path d="M42.7109 28.5684L42.5938 20.563L44.2271 20.6802L44.3149 30.7437L42.7402 30.8682L36.1851 23.0386L36.2803 30.9414L34.7495 31L34.6104 20.5264L36.1558 20.4531L42.7109 28.5684ZM50.2183 30.3262C50.4771 30.3262 50.7334 30.2871 50.9873 30.209C51.2412 30.126 51.4756 30.0088 51.6904 29.8574C51.9053 29.7012 52.0908 29.5083 52.2471 29.2788C52.4082 29.0493 52.5254 28.7832 52.5986 28.4805L54.0122 28.7661C53.8755 29.2104 53.6826 29.6133 53.4336 29.9746C53.1846 30.3359 52.894 30.646 52.562 30.9048C52.23 31.1636 51.8638 31.3638 51.4634 31.5054C51.0679 31.647 50.6528 31.7178 50.2183 31.7178C49.5737 31.7178 49.0024 31.6201 48.5044 31.4248C48.0063 31.2295 47.5864 30.9536 47.2446 30.5972C46.9028 30.2407 46.6416 29.811 46.4609 29.3081C46.2852 28.8052 46.1973 28.2437 46.1973 27.6235C46.1973 27.0132 46.2998 26.4443 46.5049 25.917C46.7148 25.3848 47.0005 24.9233 47.3618 24.5327C47.7231 24.1421 48.1479 23.8345 48.6362 23.6099C49.1245 23.3853 49.6519 23.2729 50.2183 23.2729C50.7261 23.2729 51.2046 23.373 51.6538 23.5732C52.103 23.7686 52.501 24.042 52.8477 24.3936C53.1943 24.7402 53.48 25.1504 53.7046 25.624C53.9292 26.0977 54.0708 26.6104 54.1294 27.1621L47.7866 28.1069C47.8208 28.4536 47.9062 28.7661 48.043 29.0444C48.1797 29.3179 48.353 29.5498 48.563 29.7402C48.7778 29.9307 49.0244 30.0771 49.3027 30.1797C49.5859 30.2773 49.8911 30.3262 50.2183 30.3262ZM52.2397 26.2173L52.1958 26.0781C52.0103 25.5947 51.7539 25.2163 51.4268 24.9429C51.1045 24.6694 50.7017 24.5327 50.2183 24.5327C50.0132 24.5327 49.7886 24.5693 49.5444 24.6426C49.3003 24.7109 49.0635 24.8306 48.834 25.0015C48.6045 25.1724 48.397 25.4019 48.2114 25.6899C48.0308 25.9731 47.9038 26.3271 47.8306 26.752L52.2397 26.2173ZM58.5532 26.2612L60.7725 23.4414L62.1567 23.9834L59.4834 27.3965L62.3032 30.8535L60.9556 31.4028L58.5972 28.5391L56.3926 31.3735L54.8472 30.9561L57.6523 27.3818L54.7593 23.8442L56.29 23.4854L58.5532 26.2612ZM66.8369 20.4531L66.7856 23.7271L69.6274 23.6318L69.5176 25.0015L66.771 25.0747L66.7124 31.4614L65.167 31.498L65.2915 25.1187L62.7573 25.1772L62.7866 23.8296L65.3208 23.7563L65.3794 20.5483L66.8369 20.4531Z" fill="white"/>
</g>
<defs>
<clipPath id="clip0_3331_13496">
<rect width="101" height="53" fill="white"/>
</clipPath>
</defs>
</svg>
